<mxfile host="app.diagrams.net" modified="2023-10-02T13:44:11.074Z" agent="Mozilla/5.0 (Windows NT 10.0; Win64; x64; rv:109.0) Gecko/20100101 Firefox/117.0" etag="m33c10eYz8Elzpp01c4E" version="21.8.2" type="device">
  <diagram name="Page-1" id="o-KmLX-SmC312Lo7DLAZ">
    <mxGraphModel dx="1647" dy="916" grid="1" gridSize="10" guides="1" tooltips="1" connect="1" arrows="1" fold="1" page="1" pageScale="1" pageWidth="850" pageHeight="1100" math="0" shadow="0">
      <root>
        <mxCell id="0" />
        <mxCell id="1" parent="0" />
        <mxCell id="i-Z0O8iovpIWfz8lsYah-4" style="rounded=0;orthogonalLoop=1;jettySize=auto;html=1;exitX=1;exitY=0.25;exitDx=0;exitDy=0;entryX=0;entryY=0.5;entryDx=0;entryDy=0;" edge="1" parent="1" source="i-Z0O8iovpIWfz8lsYah-1" target="i-Z0O8iovpIWfz8lsYah-2">
          <mxGeometry relative="1" as="geometry" />
        </mxCell>
        <mxCell id="i-Z0O8iovpIWfz8lsYah-5" style="rounded=0;orthogonalLoop=1;jettySize=auto;html=1;exitX=1;exitY=0.75;exitDx=0;exitDy=0;entryX=0;entryY=0.5;entryDx=0;entryDy=0;" edge="1" parent="1" source="i-Z0O8iovpIWfz8lsYah-1" target="i-Z0O8iovpIWfz8lsYah-3">
          <mxGeometry relative="1" as="geometry" />
        </mxCell>
        <mxCell id="i-Z0O8iovpIWfz8lsYah-1" value="Central Unit" style="rounded=0;whiteSpace=wrap;html=1;" vertex="1" parent="1">
          <mxGeometry x="120" y="480" width="80" height="40" as="geometry" />
        </mxCell>
        <mxCell id="i-Z0O8iovpIWfz8lsYah-2" value="Broadcast" style="ellipse;whiteSpace=wrap;html=1;" vertex="1" parent="1">
          <mxGeometry x="280" y="440" width="70" height="40" as="geometry" />
        </mxCell>
        <mxCell id="i-Z0O8iovpIWfz8lsYah-3" value="Unicast" style="ellipse;whiteSpace=wrap;html=1;" vertex="1" parent="1">
          <mxGeometry x="280" y="520" width="70" height="40" as="geometry" />
        </mxCell>
        <mxCell id="i-Z0O8iovpIWfz8lsYah-25" style="edgeStyle=none;rounded=0;orthogonalLoop=1;jettySize=auto;html=1;exitX=0.5;exitY=0;exitDx=0;exitDy=0;exitPerimeter=0;entryX=0;entryY=0.5;entryDx=0;entryDy=0;" edge="1" parent="1" source="i-Z0O8iovpIWfz8lsYah-6" target="i-Z0O8iovpIWfz8lsYah-22">
          <mxGeometry relative="1" as="geometry" />
        </mxCell>
        <mxCell id="i-Z0O8iovpIWfz8lsYah-6" value="" style="shape=cylinder3;whiteSpace=wrap;html=1;boundedLbl=1;backgroundOutline=1;size=15;rotation=90;" vertex="1" parent="1">
          <mxGeometry x="570" y="305" width="40" height="180" as="geometry" />
        </mxCell>
        <mxCell id="i-Z0O8iovpIWfz8lsYah-7" value="Queue 1" style="text;strokeColor=none;fillColor=none;align=left;verticalAlign=middle;spacingLeft=4;spacingRight=4;overflow=hidden;points=[[0,0.5],[1,0.5]];portConstraint=eastwest;rotatable=0;whiteSpace=wrap;html=1;" vertex="1" parent="1">
          <mxGeometry x="550" y="380" width="80" height="30" as="geometry" />
        </mxCell>
        <mxCell id="i-Z0O8iovpIWfz8lsYah-26" style="edgeStyle=none;rounded=0;orthogonalLoop=1;jettySize=auto;html=1;exitX=0.5;exitY=0;exitDx=0;exitDy=0;exitPerimeter=0;entryX=0;entryY=0.5;entryDx=0;entryDy=0;" edge="1" parent="1" source="i-Z0O8iovpIWfz8lsYah-8" target="i-Z0O8iovpIWfz8lsYah-23">
          <mxGeometry relative="1" as="geometry" />
        </mxCell>
        <mxCell id="i-Z0O8iovpIWfz8lsYah-8" value="" style="shape=cylinder3;whiteSpace=wrap;html=1;boundedLbl=1;backgroundOutline=1;size=15;rotation=90;" vertex="1" parent="1">
          <mxGeometry x="570" y="385" width="40" height="180" as="geometry" />
        </mxCell>
        <mxCell id="i-Z0O8iovpIWfz8lsYah-9" value="Queue 2" style="text;strokeColor=none;fillColor=none;align=left;verticalAlign=middle;spacingLeft=4;spacingRight=4;overflow=hidden;points=[[0,0.5],[1,0.5]];portConstraint=eastwest;rotatable=0;whiteSpace=wrap;html=1;" vertex="1" parent="1">
          <mxGeometry x="550" y="460" width="80" height="30" as="geometry" />
        </mxCell>
        <mxCell id="i-Z0O8iovpIWfz8lsYah-27" style="edgeStyle=none;rounded=0;orthogonalLoop=1;jettySize=auto;html=1;exitX=0.5;exitY=0;exitDx=0;exitDy=0;exitPerimeter=0;" edge="1" parent="1" source="i-Z0O8iovpIWfz8lsYah-10" target="i-Z0O8iovpIWfz8lsYah-24">
          <mxGeometry relative="1" as="geometry" />
        </mxCell>
        <mxCell id="i-Z0O8iovpIWfz8lsYah-10" value="" style="shape=cylinder3;whiteSpace=wrap;html=1;boundedLbl=1;backgroundOutline=1;size=15;rotation=90;" vertex="1" parent="1">
          <mxGeometry x="570" y="515" width="40" height="180" as="geometry" />
        </mxCell>
        <mxCell id="i-Z0O8iovpIWfz8lsYah-11" value="Queue &amp;lt;id_n&amp;gt;" style="text;strokeColor=none;fillColor=none;align=left;verticalAlign=middle;spacingLeft=4;spacingRight=4;overflow=hidden;points=[[0,0.5],[1,0.5]];portConstraint=eastwest;rotatable=0;whiteSpace=wrap;html=1;" vertex="1" parent="1">
          <mxGeometry x="550" y="590" width="100" height="30" as="geometry" />
        </mxCell>
        <mxCell id="i-Z0O8iovpIWfz8lsYah-12" value="" style="endArrow=none;dashed=1;html=1;dashPattern=1 3;strokeWidth=2;rounded=0;" edge="1" parent="1">
          <mxGeometry width="50" height="50" relative="1" as="geometry">
            <mxPoint x="590" y="565" as="sourcePoint" />
            <mxPoint x="590" y="505" as="targetPoint" />
          </mxGeometry>
        </mxCell>
        <mxCell id="i-Z0O8iovpIWfz8lsYah-14" value="&lt;br&gt;routing_key=1&lt;br&gt;" style="rounded=0;orthogonalLoop=1;jettySize=auto;html=1;exitX=1;exitY=0.5;exitDx=0;exitDy=0;entryX=0.5;entryY=1;entryDx=0;entryDy=0;entryPerimeter=0;" edge="1" parent="1" source="i-Z0O8iovpIWfz8lsYah-2" target="i-Z0O8iovpIWfz8lsYah-6">
          <mxGeometry x="0.7175" y="-28" relative="1" as="geometry">
            <mxPoint as="offset" />
          </mxGeometry>
        </mxCell>
        <mxCell id="i-Z0O8iovpIWfz8lsYah-15" style="edgeStyle=none;rounded=0;orthogonalLoop=1;jettySize=auto;html=1;exitX=1;exitY=0.5;exitDx=0;exitDy=0;entryX=0.5;entryY=1;entryDx=0;entryDy=0;entryPerimeter=0;" edge="1" parent="1" source="i-Z0O8iovpIWfz8lsYah-2" target="i-Z0O8iovpIWfz8lsYah-8">
          <mxGeometry relative="1" as="geometry" />
        </mxCell>
        <mxCell id="i-Z0O8iovpIWfz8lsYah-16" style="edgeStyle=none;rounded=0;orthogonalLoop=1;jettySize=auto;html=1;exitX=1;exitY=0.5;exitDx=0;exitDy=0;entryX=0.5;entryY=1;entryDx=0;entryDy=0;entryPerimeter=0;" edge="1" parent="1" source="i-Z0O8iovpIWfz8lsYah-2" target="i-Z0O8iovpIWfz8lsYah-10">
          <mxGeometry relative="1" as="geometry" />
        </mxCell>
        <mxCell id="i-Z0O8iovpIWfz8lsYah-17" style="edgeStyle=none;rounded=0;orthogonalLoop=1;jettySize=auto;html=1;exitX=1;exitY=0.5;exitDx=0;exitDy=0;entryX=0.5;entryY=1;entryDx=0;entryDy=0;entryPerimeter=0;" edge="1" parent="1" source="i-Z0O8iovpIWfz8lsYah-3" target="i-Z0O8iovpIWfz8lsYah-6">
          <mxGeometry relative="1" as="geometry" />
        </mxCell>
        <mxCell id="i-Z0O8iovpIWfz8lsYah-18" value="&lt;br&gt;routing_key=2&lt;br&gt;" style="edgeStyle=none;rounded=0;orthogonalLoop=1;jettySize=auto;html=1;exitX=1;exitY=0.5;exitDx=0;exitDy=0;entryX=0.5;entryY=1;entryDx=0;entryDy=0;entryPerimeter=0;" edge="1" parent="1" source="i-Z0O8iovpIWfz8lsYah-3" target="i-Z0O8iovpIWfz8lsYah-8">
          <mxGeometry x="0.4294" y="-7" relative="1" as="geometry">
            <mxPoint as="offset" />
          </mxGeometry>
        </mxCell>
        <mxCell id="i-Z0O8iovpIWfz8lsYah-19" value="routing_key=n" style="edgeStyle=none;rounded=0;orthogonalLoop=1;jettySize=auto;html=1;exitX=1;exitY=0.5;exitDx=0;exitDy=0;entryX=0.5;entryY=1;entryDx=0;entryDy=0;entryPerimeter=0;" edge="1" parent="1" source="i-Z0O8iovpIWfz8lsYah-3" target="i-Z0O8iovpIWfz8lsYah-10">
          <mxGeometry x="-0.1319" y="-13" relative="1" as="geometry">
            <mxPoint as="offset" />
          </mxGeometry>
        </mxCell>
        <mxCell id="i-Z0O8iovpIWfz8lsYah-22" value="Lift Op. 1" style="rounded=0;whiteSpace=wrap;html=1;" vertex="1" parent="1">
          <mxGeometry x="760" y="375" width="80" height="40" as="geometry" />
        </mxCell>
        <mxCell id="i-Z0O8iovpIWfz8lsYah-23" value="Lift Op. 2" style="rounded=0;whiteSpace=wrap;html=1;" vertex="1" parent="1">
          <mxGeometry x="760" y="455" width="80" height="40" as="geometry" />
        </mxCell>
        <mxCell id="i-Z0O8iovpIWfz8lsYah-24" value="Lift Op. n" style="rounded=0;whiteSpace=wrap;html=1;" vertex="1" parent="1">
          <mxGeometry x="760" y="585" width="80" height="40" as="geometry" />
        </mxCell>
      </root>
    </mxGraphModel>
  </diagram>
</mxfile>
